<mxfile host="app.diagrams.net" modified="2020-10-05T15:07:23.457Z" agent="5.0 (X11; Linux x86_64) AppleWebKit/537.36 (KHTML, like Gecko) Chrome/85.0.4183.121 Safari/537.36" etag="unDd37VOc7lSH13u-wvo" version="13.7.7" type="github">
  <diagram id="C5RBs43oDa-KdzZeNtuy" name="Page-1">
    <mxGraphModel dx="1848" dy="487" grid="1" gridSize="10" guides="1" tooltips="1" connect="1" arrows="1" fold="1" page="1" pageScale="1" pageWidth="827" pageHeight="1169" math="0" shadow="1">
      <root>
        <mxCell id="WIyWlLk6GJQsqaUBKTNV-0" />
        <mxCell id="WIyWlLk6GJQsqaUBKTNV-1" parent="WIyWlLk6GJQsqaUBKTNV-0" />
        <mxCell id="EDxwUphl_wS29YdYm78Z-47" value="" style="edgeStyle=orthogonalEdgeStyle;rounded=0;orthogonalLoop=1;jettySize=auto;html=1;" edge="1" parent="WIyWlLk6GJQsqaUBKTNV-1" source="EDxwUphl_wS29YdYm78Z-2" target="EDxwUphl_wS29YdYm78Z-3">
          <mxGeometry relative="1" as="geometry" />
        </mxCell>
        <mxCell id="EDxwUphl_wS29YdYm78Z-2" value="start" style="ellipse;whiteSpace=wrap;html=1;rounded=1;" vertex="1" parent="WIyWlLk6GJQsqaUBKTNV-1">
          <mxGeometry x="-85.86000000000001" y="40" width="120" height="80" as="geometry" />
        </mxCell>
        <mxCell id="EDxwUphl_wS29YdYm78Z-5" value="" style="edgeStyle=orthogonalEdgeStyle;orthogonalLoop=1;jettySize=auto;html=1;" edge="1" parent="WIyWlLk6GJQsqaUBKTNV-1" source="EDxwUphl_wS29YdYm78Z-3" target="EDxwUphl_wS29YdYm78Z-4">
          <mxGeometry relative="1" as="geometry" />
        </mxCell>
        <mxCell id="EDxwUphl_wS29YdYm78Z-3" value="int a,b,c,d,e&lt;br&gt;positif,negatif,genap,ganjil" style="whiteSpace=wrap;html=1;rounded=1;" vertex="1" parent="WIyWlLk6GJQsqaUBKTNV-1">
          <mxGeometry x="-113.86000000000001" y="120" width="176" height="100" as="geometry" />
        </mxCell>
        <mxCell id="EDxwUphl_wS29YdYm78Z-11" value="" style="edgeStyle=orthogonalEdgeStyle;orthogonalLoop=1;jettySize=auto;html=1;" edge="1" parent="WIyWlLk6GJQsqaUBKTNV-1" source="EDxwUphl_wS29YdYm78Z-4" target="EDxwUphl_wS29YdYm78Z-6">
          <mxGeometry relative="1" as="geometry" />
        </mxCell>
        <mxCell id="EDxwUphl_wS29YdYm78Z-4" value="input a" style="shape=parallelogram;perimeter=parallelogramPerimeter;whiteSpace=wrap;html=1;fixedSize=1;rounded=1;" vertex="1" parent="WIyWlLk6GJQsqaUBKTNV-1">
          <mxGeometry x="-85.86000000000001" y="290" width="120" height="60" as="geometry" />
        </mxCell>
        <mxCell id="EDxwUphl_wS29YdYm78Z-12" value="" style="edgeStyle=orthogonalEdgeStyle;orthogonalLoop=1;jettySize=auto;html=1;" edge="1" parent="WIyWlLk6GJQsqaUBKTNV-1" source="EDxwUphl_wS29YdYm78Z-6" target="EDxwUphl_wS29YdYm78Z-7">
          <mxGeometry relative="1" as="geometry" />
        </mxCell>
        <mxCell id="EDxwUphl_wS29YdYm78Z-6" value="input b" style="shape=parallelogram;perimeter=parallelogramPerimeter;whiteSpace=wrap;html=1;fixedSize=1;rounded=1;" vertex="1" parent="WIyWlLk6GJQsqaUBKTNV-1">
          <mxGeometry x="-85.86000000000001" y="380" width="120" height="60" as="geometry" />
        </mxCell>
        <mxCell id="EDxwUphl_wS29YdYm78Z-14" value="" style="edgeStyle=orthogonalEdgeStyle;orthogonalLoop=1;jettySize=auto;html=1;" edge="1" parent="WIyWlLk6GJQsqaUBKTNV-1" source="EDxwUphl_wS29YdYm78Z-7" target="EDxwUphl_wS29YdYm78Z-8">
          <mxGeometry relative="1" as="geometry" />
        </mxCell>
        <mxCell id="EDxwUphl_wS29YdYm78Z-7" value="input c" style="shape=parallelogram;perimeter=parallelogramPerimeter;whiteSpace=wrap;html=1;fixedSize=1;rounded=1;" vertex="1" parent="WIyWlLk6GJQsqaUBKTNV-1">
          <mxGeometry x="-85.86000000000001" y="470" width="120" height="60" as="geometry" />
        </mxCell>
        <mxCell id="EDxwUphl_wS29YdYm78Z-15" value="" style="edgeStyle=orthogonalEdgeStyle;orthogonalLoop=1;jettySize=auto;html=1;" edge="1" parent="WIyWlLk6GJQsqaUBKTNV-1" source="EDxwUphl_wS29YdYm78Z-8" target="EDxwUphl_wS29YdYm78Z-9">
          <mxGeometry relative="1" as="geometry" />
        </mxCell>
        <mxCell id="EDxwUphl_wS29YdYm78Z-8" value="input d" style="shape=parallelogram;perimeter=parallelogramPerimeter;whiteSpace=wrap;html=1;fixedSize=1;rounded=1;" vertex="1" parent="WIyWlLk6GJQsqaUBKTNV-1">
          <mxGeometry x="-85.86000000000001" y="564.5" width="120" height="60" as="geometry" />
        </mxCell>
        <mxCell id="EDxwUphl_wS29YdYm78Z-16" value="" style="edgeStyle=orthogonalEdgeStyle;orthogonalLoop=1;jettySize=auto;html=1;" edge="1" parent="WIyWlLk6GJQsqaUBKTNV-1" source="EDxwUphl_wS29YdYm78Z-9" target="EDxwUphl_wS29YdYm78Z-10">
          <mxGeometry relative="1" as="geometry" />
        </mxCell>
        <mxCell id="EDxwUphl_wS29YdYm78Z-29" value="" style="edgeStyle=orthogonalEdgeStyle;orthogonalLoop=1;jettySize=auto;html=1;" edge="1" parent="WIyWlLk6GJQsqaUBKTNV-1" source="EDxwUphl_wS29YdYm78Z-9" target="EDxwUphl_wS29YdYm78Z-28">
          <mxGeometry relative="1" as="geometry" />
        </mxCell>
        <mxCell id="EDxwUphl_wS29YdYm78Z-9" value="input e" style="shape=parallelogram;perimeter=parallelogramPerimeter;whiteSpace=wrap;html=1;fixedSize=1;rounded=1;" vertex="1" parent="WIyWlLk6GJQsqaUBKTNV-1">
          <mxGeometry x="-85.86000000000001" y="650" width="120" height="60" as="geometry" />
        </mxCell>
        <mxCell id="EDxwUphl_wS29YdYm78Z-18" value="" style="edgeStyle=orthogonalEdgeStyle;orthogonalLoop=1;jettySize=auto;html=1;" edge="1" parent="WIyWlLk6GJQsqaUBKTNV-1" source="EDxwUphl_wS29YdYm78Z-10" target="EDxwUphl_wS29YdYm78Z-17">
          <mxGeometry relative="1" as="geometry" />
        </mxCell>
        <mxCell id="EDxwUphl_wS29YdYm78Z-21" value="" style="edgeStyle=orthogonalEdgeStyle;orthogonalLoop=1;jettySize=auto;html=1;" edge="1" parent="WIyWlLk6GJQsqaUBKTNV-1" source="EDxwUphl_wS29YdYm78Z-10" target="EDxwUphl_wS29YdYm78Z-20">
          <mxGeometry relative="1" as="geometry" />
        </mxCell>
        <mxCell id="EDxwUphl_wS29YdYm78Z-10" value="a,b,c,d,e % 2 ==0" style="rhombus;whiteSpace=wrap;html=1;rounded=1;" vertex="1" parent="WIyWlLk6GJQsqaUBKTNV-1">
          <mxGeometry x="-269.86" y="610" width="130" height="140" as="geometry" />
        </mxCell>
        <mxCell id="EDxwUphl_wS29YdYm78Z-35" style="edgeStyle=orthogonalEdgeStyle;orthogonalLoop=1;jettySize=auto;html=1;" edge="1" parent="WIyWlLk6GJQsqaUBKTNV-1" source="EDxwUphl_wS29YdYm78Z-17">
          <mxGeometry relative="1" as="geometry">
            <mxPoint x="-479.86" y="1128" as="targetPoint" />
          </mxGeometry>
        </mxCell>
        <mxCell id="EDxwUphl_wS29YdYm78Z-17" value="genap = +1" style="whiteSpace=wrap;html=1;rounded=1;" vertex="1" parent="WIyWlLk6GJQsqaUBKTNV-1">
          <mxGeometry x="-439.86" y="650" width="120" height="60" as="geometry" />
        </mxCell>
        <mxCell id="EDxwUphl_wS29YdYm78Z-19" value="true" style="text;html=1;align=center;verticalAlign=middle;resizable=0;points=[];autosize=1;rounded=1;" vertex="1" parent="WIyWlLk6GJQsqaUBKTNV-1">
          <mxGeometry x="-309.86" y="650" width="40" height="20" as="geometry" />
        </mxCell>
        <mxCell id="EDxwUphl_wS29YdYm78Z-24" value="" style="edgeStyle=orthogonalEdgeStyle;orthogonalLoop=1;jettySize=auto;html=1;" edge="1" parent="WIyWlLk6GJQsqaUBKTNV-1" source="EDxwUphl_wS29YdYm78Z-20" target="EDxwUphl_wS29YdYm78Z-23">
          <mxGeometry relative="1" as="geometry" />
        </mxCell>
        <mxCell id="EDxwUphl_wS29YdYm78Z-27" value="" style="edgeStyle=orthogonalEdgeStyle;orthogonalLoop=1;jettySize=auto;html=1;" edge="1" parent="WIyWlLk6GJQsqaUBKTNV-1" source="EDxwUphl_wS29YdYm78Z-20" target="EDxwUphl_wS29YdYm78Z-26">
          <mxGeometry relative="1" as="geometry" />
        </mxCell>
        <mxCell id="EDxwUphl_wS29YdYm78Z-20" value="a,b,c,d,e%2!=0" style="rhombus;whiteSpace=wrap;html=1;rounded=1;" vertex="1" parent="WIyWlLk6GJQsqaUBKTNV-1">
          <mxGeometry x="-269.86" y="780" width="130" height="140" as="geometry" />
        </mxCell>
        <mxCell id="EDxwUphl_wS29YdYm78Z-22" value="false" style="text;html=1;align=center;verticalAlign=middle;resizable=0;points=[];autosize=1;rounded=1;" vertex="1" parent="WIyWlLk6GJQsqaUBKTNV-1">
          <mxGeometry x="-259.86" y="750" width="40" height="20" as="geometry" />
        </mxCell>
        <mxCell id="EDxwUphl_wS29YdYm78Z-36" style="edgeStyle=orthogonalEdgeStyle;orthogonalLoop=1;jettySize=auto;html=1;" edge="1" parent="WIyWlLk6GJQsqaUBKTNV-1" source="EDxwUphl_wS29YdYm78Z-23">
          <mxGeometry relative="1" as="geometry">
            <mxPoint x="-479.86" y="850" as="targetPoint" />
          </mxGeometry>
        </mxCell>
        <mxCell id="EDxwUphl_wS29YdYm78Z-23" value="ganjil" style="whiteSpace=wrap;html=1;rounded=1;" vertex="1" parent="WIyWlLk6GJQsqaUBKTNV-1">
          <mxGeometry x="-439.86" y="820" width="120" height="60" as="geometry" />
        </mxCell>
        <mxCell id="EDxwUphl_wS29YdYm78Z-25" value="tru" style="text;html=1;align=center;verticalAlign=middle;resizable=0;points=[];autosize=1;rounded=1;" vertex="1" parent="WIyWlLk6GJQsqaUBKTNV-1">
          <mxGeometry x="-314.86" y="810" width="30" height="20" as="geometry" />
        </mxCell>
        <mxCell id="EDxwUphl_wS29YdYm78Z-26" value="output &quot;bilangan tidak valid&quot;" style="shape=parallelogram;perimeter=parallelogramPerimeter;whiteSpace=wrap;html=1;fixedSize=1;rounded=1;" vertex="1" parent="WIyWlLk6GJQsqaUBKTNV-1">
          <mxGeometry x="-287.36" y="970" width="165" height="90" as="geometry" />
        </mxCell>
        <mxCell id="EDxwUphl_wS29YdYm78Z-31" value="" style="edgeStyle=orthogonalEdgeStyle;orthogonalLoop=1;jettySize=auto;html=1;" edge="1" parent="WIyWlLk6GJQsqaUBKTNV-1" source="EDxwUphl_wS29YdYm78Z-28" target="EDxwUphl_wS29YdYm78Z-30">
          <mxGeometry relative="1" as="geometry" />
        </mxCell>
        <mxCell id="EDxwUphl_wS29YdYm78Z-34" value="" style="edgeStyle=orthogonalEdgeStyle;orthogonalLoop=1;jettySize=auto;html=1;" edge="1" parent="WIyWlLk6GJQsqaUBKTNV-1" source="EDxwUphl_wS29YdYm78Z-28" target="EDxwUphl_wS29YdYm78Z-33">
          <mxGeometry relative="1" as="geometry" />
        </mxCell>
        <mxCell id="EDxwUphl_wS29YdYm78Z-28" value="a,b,c,d,e &amp;gt; 0" style="rhombus;whiteSpace=wrap;html=1;rounded=1;" vertex="1" parent="WIyWlLk6GJQsqaUBKTNV-1">
          <mxGeometry x="-98.86000000000001" y="750" width="146" height="160" as="geometry" />
        </mxCell>
        <mxCell id="EDxwUphl_wS29YdYm78Z-40" style="edgeStyle=orthogonalEdgeStyle;orthogonalLoop=1;jettySize=auto;html=1;" edge="1" parent="WIyWlLk6GJQsqaUBKTNV-1" source="EDxwUphl_wS29YdYm78Z-30">
          <mxGeometry relative="1" as="geometry">
            <mxPoint x="200.14" y="1100" as="targetPoint" />
          </mxGeometry>
        </mxCell>
        <mxCell id="EDxwUphl_wS29YdYm78Z-30" value="positif = +1" style="whiteSpace=wrap;html=1;rounded=1;" vertex="1" parent="WIyWlLk6GJQsqaUBKTNV-1">
          <mxGeometry x="140.14" y="800" width="120" height="60" as="geometry" />
        </mxCell>
        <mxCell id="EDxwUphl_wS29YdYm78Z-32" value="true" style="text;html=1;align=center;verticalAlign=middle;resizable=0;points=[];autosize=1;rounded=1;" vertex="1" parent="WIyWlLk6GJQsqaUBKTNV-1">
          <mxGeometry x="60.139999999999986" y="800" width="40" height="20" as="geometry" />
        </mxCell>
        <mxCell id="EDxwUphl_wS29YdYm78Z-39" style="edgeStyle=orthogonalEdgeStyle;orthogonalLoop=1;jettySize=auto;html=1;" edge="1" parent="WIyWlLk6GJQsqaUBKTNV-1" source="EDxwUphl_wS29YdYm78Z-33" target="EDxwUphl_wS29YdYm78Z-37">
          <mxGeometry relative="1" as="geometry" />
        </mxCell>
        <mxCell id="EDxwUphl_wS29YdYm78Z-33" value="negatif = +1" style="whiteSpace=wrap;html=1;rounded=1;" vertex="1" parent="WIyWlLk6GJQsqaUBKTNV-1">
          <mxGeometry x="-85.86000000000001" y="950" width="120" height="60" as="geometry" />
        </mxCell>
        <mxCell id="EDxwUphl_wS29YdYm78Z-45" value="" style="edgeStyle=orthogonalEdgeStyle;orthogonalLoop=1;jettySize=auto;html=1;" edge="1" parent="WIyWlLk6GJQsqaUBKTNV-1" source="EDxwUphl_wS29YdYm78Z-37" target="EDxwUphl_wS29YdYm78Z-44">
          <mxGeometry relative="1" as="geometry" />
        </mxCell>
        <mxCell id="EDxwUphl_wS29YdYm78Z-37" value="output a,b,c,d,e = positif,negatif,ganjil,genap" style="shape=parallelogram;perimeter=parallelogramPerimeter;whiteSpace=wrap;html=1;fixedSize=1;rounded=1;" vertex="1" parent="WIyWlLk6GJQsqaUBKTNV-1">
          <mxGeometry x="-64.86000000000001" y="1060" width="165" height="90" as="geometry" />
        </mxCell>
        <mxCell id="EDxwUphl_wS29YdYm78Z-38" value="" style="endArrow=classic;html=1;" edge="1" parent="WIyWlLk6GJQsqaUBKTNV-1">
          <mxGeometry width="50" height="50" relative="1" as="geometry">
            <mxPoint x="-469.86" y="1120" as="sourcePoint" />
            <mxPoint x="-69.86000000000001" y="1120" as="targetPoint" />
          </mxGeometry>
        </mxCell>
        <mxCell id="EDxwUphl_wS29YdYm78Z-43" value="" style="endArrow=classic;html=1;" edge="1" parent="WIyWlLk6GJQsqaUBKTNV-1" target="EDxwUphl_wS29YdYm78Z-37">
          <mxGeometry width="50" height="50" relative="1" as="geometry">
            <mxPoint x="200.14" y="1103" as="sourcePoint" />
            <mxPoint x="200.14" y="1060" as="targetPoint" />
          </mxGeometry>
        </mxCell>
        <mxCell id="EDxwUphl_wS29YdYm78Z-44" value="end" style="ellipse;whiteSpace=wrap;html=1;rounded=1;" vertex="1" parent="WIyWlLk6GJQsqaUBKTNV-1">
          <mxGeometry x="-42.360000000000014" y="1179" width="120" height="80" as="geometry" />
        </mxCell>
      </root>
    </mxGraphModel>
  </diagram>
</mxfile>
